/* XPM */
static char * blockemlogo32_xpm[] = {
"32 32 31 1",
" 	c None",
".	c #C21107",
"+	c #A63B16",
"@	c #A73915",
"#	c #A63B15",
"$	c #41DB51",
"%	c #46D34E",
"&	c #47D34E",
"*	c #41DA51",
"=	c #4CCC4C",
"-	c #4CCB4B",
";	c #47D24E",
">	c #A73A16",
",	c #4BCB4B",
"'	c #4BCC4C",
")	c #49CF4D",
"!	c #A83815",
"~	c #4ACD4C",
"{	c #4FC649",
"]	c #4EC74A",
"^	c #4BCC4B",
"/	c #4EC84A",
"(	c #4CC94B",
"_	c #C8231A",
":	c #B73011",
"<	c #B82F11",
"[	c #B73313",
"}	c #AF4218",
"|	c #B63112",
"1	c #B83011",
"2	c #C02011",
".+@@@@@@@#@                     ",
"+$%%%%%%&*@                     ",
"@%======-;@                     ",
"@%======-;@                     ",
"@%======-;@                     ",
"@%======-;@                     ",
"@%======-;@                     ",
"@%======-;@                     ",
"@%======-;@                     ",
"@%======-;@                     ",
">%======-;@                     ",
"@%=======,@@@@@@@@@@@@@@@@@@@@@@",
"@%======-'-===================)@",
"@%============================)@",
"@%============================)@",
"@%============================)@",
"@%============================)@",
"@%============================)@",
"@%============================)@",
"@%============================)@",
"!~{{{{{{{{],========^/{{{{{{{{(@",
"_:<<<<<<<:[@========/}|<<<<<<<12",
"           @========{|          ",
"           @========{<          ",
"           @========{<          ",
"           @========{<          ",
"           @========{<          ",
"           @========{<          ",
"           @========{<          ",
"           @========{<          ",
"           @))))))))(1          ",
"           @@@@@@@@@@@          "};
